<svg width="30" height="30" fill="none" xmlns="http://www.w3.org/2000/svg"><path d="M30 15c0 8.281-6.719 15-15 15-8.281 0-15-6.719-15-15C0 6.719 6.719 0 15 0c8.281 0 15 6.719 15 15z" fill="#fff"/><path d="M27.868 15c0 7.091-5.752 12.868-12.868 12.868A12.856 12.856 0 012.133 15 12.856 12.856 0 0115 2.133c7.116 0 12.868 5.776 12.868 12.867z" fill="#ED1D24"/><path d="M22.76 20.232a.942.942 0 11-.942-.942c.546 0 .943.421.943.942zm-11.603.519c-.992-1.041-.223-3.05-.05-4.735-.223.223-2.33 5.157-4.264 5.157h-.1c-1.76-.174-1.536-2.603-.99-4.066h2.826c-.868 2.405.322 1.413 1.14-.1 1.636-3.322 1.661-3.396 3.446-8.404h3.124c-.917 2.85-1.71 5.405-2.082 8.355 0 .1.05.223.173.174.645-.1 4.14-7.984 4.463-8.53h3.124s-3.322 9.174-2.777 10.042c.273.496.645-.446.992-.818l.496.496c-.918 1.016-1.959 2.876-3.422 2.876-.124 0-.223-.025-.347-.025a1.268 1.268 0 01-.595-.322c-1.686-1.463 1.364-6.918 1.041-7.265-.099 0-.198.273-.371.645-.918 1.909-3.05 6.967-4.81 6.967-.298-.025-.72-.124-1.017-.447z" fill="#fff"/></svg>