<svg width="25" height="25" fill="none" xmlns="http://www.w3.org/2000/svg"><path d="M0 4.688A4.688 4.688 0 014.688 0h15.625A4.688 4.688 0 0125 4.688v15.625A4.688 4.688 0 0120.312 25H4.688A4.688 4.688 0 010 20.312V4.688z" fill="#78BD20"/><path d="M20.252 6.697c.375-2.054-.201-3.483-2.565-3.483h-7.352l-.692 3.602H15.9c.375 0 .49.208.433.654l-.808 4.286h-3.891l.576-2.976-8.994 4.464h6.688l-.577 2.976 5.91-2.916-.778 4.226c-.116.417-.317.625-.779.625H7.481l-.663 3.63h7.38c2.335 0 3.489-1.428 3.834-3.481l2.22-11.607z" fill="#000"/></svg>